<?xml version="1.0" encoding="UTF-8"?>
<svg id="Layer_2" data-name="Layer 2" xmlns="http://www.w3.org/2000/svg" viewBox="0 0 42 42">
  <g id="Layer_1-2" data-name="Layer 1">
    <path d="M10,0C4.49,0,0,4.49,0,10v22c0,5.51,4.49,10,10,10h22c5.51,0,10-4.49,10-10V10c0-5.51-4.49-10-10-10H10ZM9,12h24c.18,0,.35.02.51.07l-9.83,9.82c-1.48,1.48-3.89,1.48-5.37,0l-9.82-9.82c.16-.05.33-.07.51-.07ZM7.07,13.49l7.52,7.51-7.52,7.51c-.05-.16-.07-.33-.07-.51v-14c0-.18.02-.35.07-.51ZM34.93,13.49c.05.16.07.33.07.51v14c0,.18-.02.35-.07.51l-7.53-7.51,7.53-7.51ZM16,22.41l.89.9c1.13,1.13,2.62,1.69,4.1,1.69s2.97-.56,4.1-1.69l.9-.9,7.52,7.52c-.16.05-.33.07-.51.07H9c-.18,0-.35-.02-.51-.07l7.51-7.52Z" style="stroke-width: 0px;"/>
  </g>
</svg>