<?xml version="1.0" encoding="UTF-8"?>
<svg id="Layer_2" data-name="Layer 2" xmlns="http://www.w3.org/2000/svg" viewBox="0 0 42 42">
  <g id="Layer_1-2" data-name="Layer 1">
    <path d="M10,0C4.49,0,0,4.49,0,10v22c0,5.51,4.49,10,10,10h22c5.51,0,10-4.49,10-10V10c0-5.51-4.49-10-10-10H10ZM14.01,8.04c.63.03,1.2.38,1.55.92.4.62,1.01,1.58,1.81,2.83.73,1.14.78,2.61.13,3.8l-1.46,2.08c-.4.56-.47,1.29-.21,1.92.41.99,1.22,2.51,2.64,3.94s2.95,2.23,3.94,2.64c.64.27,1.36.19,1.92-.21l2.08-1.46c1.19-.65,2.66-.6,3.8.13,1.25.8,2.21,1.41,2.83,1.81.54.35.9.92.92,1.55.15,3.56-2.61,5.01-3.41,5.01-.56,0-7.24.76-14.78-6.78-7.54-7.54-6.78-14.22-6.78-14.78,0-.8,1.44-3.56,5.01-3.41Z" style="stroke-width: 0px;"/>
  </g>
</svg>